<?xml version="1.0" encoding="UTF-8"?>
<svg width="14px" height="14px" viewBox="0 0 14 14" version="1.1" xmlns="http://www.w3.org/2000/svg" xmlns:xlink="http://www.w3.org/1999/xlink">
    <!-- Generator: Sketch 51.2 (57519) - http://www.bohemiancoding.com/sketch -->
    <title>Search Icon</title>
    <desc>Created with Sketch.</desc>
    <defs></defs>
    <g id="Symbols" stroke="none" stroke-width="1" fill="none" fill-rule="evenodd">
        <g id="Desktop---Menú-Principal" transform="translate(-1207.000000, -31.000000)" fill="#4A4A4A">
            <path d="M1216.78454,39.7064245 C1216.8716,39.7460662 1216.953,39.801529 1217.02416,39.8726908 L1220.75746,43.6059879 C1221.07818,43.9267048 1221.08217,44.4426941 1220.76142,44.7634422 C1220.4429,45.0819696 1219.92152,45.0770259 1219.60397,44.7594777 L1215.87067,41.0261806 C1215.79926,40.9547709 1215.74355,40.8736804 1215.70364,40.7872198 C1214.79424,41.4715454 1213.66328,41.8771466 1212.4376,41.8771466 C1209.4345,41.8771466 1207,39.4422144 1207,36.4385733 C1207,33.4349322 1209.4345,31 1212.4376,31 C1215.44071,31 1217.87521,33.4349322 1217.87521,36.4385733 C1217.87521,37.6650257 1217.46931,38.7966592 1216.78454,39.7064245 Z M1212.4376,40.7894319 C1214.84009,40.7894319 1216.78769,38.8414861 1216.78769,36.4385733 C1216.78769,34.0356604 1214.84009,32.0877147 1212.4376,32.0877147 C1210.03512,32.0877147 1208.08752,34.0356604 1208.08752,36.4385733 C1208.08752,38.8414861 1210.03512,40.7894319 1212.4376,40.7894319 Z" id="Search-Icon"></path>
        </g>
    </g>
</svg>